{
    "asset" : {
        "generator" : "Khronos glTF Blender I/O v1.8.19",
        "version" : "2.0"
    },
    "scene" : 0,
    "scenes" : [
        {
            "name" : "Scene",
            "nodes" : [
                1,
                2,
                3,
                4,
                5,
                6,
                7,
                8,
                9,
                10
            ]
        }
    ],
    "nodes" : [
        {
            "mesh" : 0,
            "name" : "Rectangle004",
            "rotation" : [
                0.7071068286895752,
                0,
                0,
                0.7071068286895752
            ],
            "scale" : [
                0.22460709512233734,
                0.22460709512233734,
                0.22460709512233734
            ],
            "translation" : [
                0,
                0,
                0.3037884533405304
            ]
        },
        {
            "children" : [
                0
            ],
            "name" : "RootNode"
        },
        {
            "mesh" : 1,
            "name" : "Plane",
            "rotation" : [
                0.7071068286895752,
                0,
                0,
                0.7071068286895752
            ],
            "scale" : [
                0.31293871998786926,
                0.17928427457809448,
                0.17928427457809448
            ]
        },
        {
            "mesh" : 2,
            "name" : "Cylinder.001",
            "translation" : [
                -0.29154112935066223,
                -0.15902243554592133,
                0
            ]
        },
        {
            "mesh" : 2,
            "name" : "Cylinder.002",
            "translation" : [
                -0.29154112935066223,
                0.1563720554113388,
                0
            ]
        },
        {
            "mesh" : 2,
            "name" : "Cylinder.003",
            "translation" : [
                0.2888908088207245,
                0.15756472945213318,
                0
            ]
        },
        {
            "mesh" : 2,
            "name" : "Cylinder.004",
            "translation" : [
                0.2879631817340851,
                -0.1554444134235382,
                0
            ]
        },
        {
            "mesh" : 3,
            "name" : "Cube.166"
        },
        {
            "mesh" : 4,
            "name" : "Cube.167"
        },
        {
            "mesh" : 5,
            "name" : "Cube.168"
        },
        {
            "mesh" : 6,
            "name" : "Cube.169"
        }
    ],
    "materials" : [
        {
            "name" : "phong1",
            "normalTexture" : {
                "index" : 0
            },
            "pbrMetallicRoughness" : {
                "baseColorTexture" : {
                    "index" : 1
                },
                "metallicRoughnessTexture" : {
                    "index" : 2
                }
            }
        },
        {
            "doubleSided" : true,
            "name" : "lightMetalBody",
            "pbrMetallicRoughness" : {
                "baseColorFactor" : [
                    0.11746204644441605,
                    0.1196388527750969,
                    0.20528759062290192,
                    1
                ],
                "roughnessFactor" : 0.3500000238418579
            }
        },
        {
            "alphaMode" : "BLEND",
            "doubleSided" : true,
            "emissiveFactor" : [
                0,
                0.4119214713573456,
                1
            ],
            "name" : "LaserLightMat",
            "pbrMetallicRoughness" : {
                "baseColorFactor" : [
                    0.800000011920929,
                    0.800000011920929,
                    0.800000011920929,
                    0.8227272629737854
                ],
                "metallicFactor" : 0,
                "roughnessFactor" : 0.5
            }
        },
        {
            "doubleSided" : true,
            "emissiveFactor" : [
                1,
                0.0026999793481081724,
                0.0026999793481081724
            ],
            "name" : "StipLightMat",
            "pbrMetallicRoughness" : {
                "baseColorFactor" : [
                    0.800000011920929,
                    0.800000011920929,
                    0.800000011920929,
                    1
                ],
                "metallicFactor" : 0,
                "roughnessFactor" : 0.5
            }
        }
    ],
    "meshes" : [
        {
            "name" : "mesh_39",
            "primitives" : [
                {
                    "attributes" : {
                        "POSITION" : 0,
                        "NORMAL" : 1,
                        "TEXCOORD_0" : 2
                    },
                    "indices" : 3,
                    "material" : 0
                }
            ]
        },
        {
            "name" : "Plane",
            "primitives" : [
                {
                    "attributes" : {
                        "POSITION" : 4,
                        "NORMAL" : 5,
                        "TEXCOORD_0" : 6
                    },
                    "indices" : 7,
                    "material" : 1
                }
            ]
        },
        {
            "name" : "Cylinder.001",
            "primitives" : [
                {
                    "attributes" : {
                        "POSITION" : 8,
                        "NORMAL" : 9,
                        "TEXCOORD_0" : 10
                    },
                    "indices" : 11,
                    "material" : 2
                },
                {
                    "attributes" : {
                        "POSITION" : 12,
                        "NORMAL" : 13,
                        "TEXCOORD_0" : 14
                    },
                    "indices" : 15,
                    "material" : 1
                }
            ]
        },
        {
            "name" : "Cube",
            "primitives" : [
                {
                    "attributes" : {
                        "POSITION" : 16,
                        "NORMAL" : 17,
                        "TEXCOORD_0" : 18
                    },
                    "indices" : 19,
                    "material" : 3
                }
            ]
        },
        {
            "name" : "Cube.167",
            "primitives" : [
                {
                    "attributes" : {
                        "POSITION" : 20,
                        "NORMAL" : 21,
                        "TEXCOORD_0" : 22
                    },
                    "indices" : 23,
                    "material" : 3
                }
            ]
        },
        {
            "name" : "Cube.168",
            "primitives" : [
                {
                    "attributes" : {
                        "POSITION" : 24,
                        "NORMAL" : 25,
                        "TEXCOORD_0" : 26
                    },
                    "indices" : 19,
                    "material" : 3
                }
            ]
        },
        {
            "name" : "Cube.169",
            "primitives" : [
                {
                    "attributes" : {
                        "POSITION" : 27,
                        "NORMAL" : 28,
                        "TEXCOORD_0" : 29
                    },
                    "indices" : 23,
                    "material" : 3
                }
            ]
        }
    ],
    "textures" : [
        {
            "sampler" : 0,
            "source" : 0
        },
        {
            "sampler" : 0,
            "source" : 1
        },
        {
            "sampler" : 0,
            "source" : 2
        }
    ],
    "images" : [
        {
            "mimeType" : "image/png",
            "name" : "Image_0",
            "uri" : "Image_0.png"
        },
        {
            "mimeType" : "image/png",
            "name" : "Image_1",
            "uri" : "Image_1.png"
        },
        {
            "mimeType" : "image/png",
            "name" : "Image_2",
            "uri" : "Image_2.png"
        }
    ],
    "accessors" : [
        {
            "bufferView" : 0,
            "componentType" : 5126,
            "count" : 6972,
            "max" : [
                0.5146105289459229,
                1.606152057647705,
                0.5100002288818359
            ],
            "min" : [
                -0.4855247437953949,
                -1.3938480615615845,
                -2.397409559762309e-07
            ],
            "type" : "VEC3"
        },
        {
            "bufferView" : 1,
            "componentType" : 5126,
            "count" : 6972,
            "type" : "VEC3"
        },
        {
            "bufferView" : 2,
            "componentType" : 5126,
            "count" : 6972,
            "type" : "VEC2"
        },
        {
            "bufferView" : 3,
            "componentType" : 5123,
            "count" : 7722,
            "type" : "SCALAR"
        },
        {
            "bufferView" : 4,
            "componentType" : 5126,
            "count" : 4,
            "max" : [
                1,
                0,
                1
            ],
            "min" : [
                -1,
                0,
                -1
            ],
            "type" : "VEC3"
        },
        {
            "bufferView" : 5,
            "componentType" : 5126,
            "count" : 4,
            "type" : "VEC3"
        },
        {
            "bufferView" : 6,
            "componentType" : 5126,
            "count" : 4,
            "type" : "VEC2"
        },
        {
            "bufferView" : 7,
            "componentType" : 5123,
            "count" : 6,
            "type" : "SCALAR"
        },
        {
            "bufferView" : 8,
            "componentType" : 5126,
            "count" : 130,
            "max" : [
                0.0041331276297569275,
                0.0043053776025772095,
                1.3224362134933472
            ],
            "min" : [
                -0.0041044726967811584,
                -0.0039322227239608765,
                0.0065971361473202705
            ],
            "type" : "VEC3"
        },
        {
            "bufferView" : 9,
            "componentType" : 5126,
            "count" : 130,
            "type" : "VEC3"
        },
        {
            "bufferView" : 10,
            "componentType" : 5126,
            "count" : 130,
            "type" : "VEC2"
        },
        {
            "bufferView" : 11,
            "componentType" : 5123,
            "count" : 372,
            "type" : "SCALAR"
        },
        {
            "bufferView" : 12,
            "componentType" : 5126,
            "count" : 229,
            "max" : [
                0.01001431792974472,
                0.010186582803726196,
                0.022738702595233917
            ],
            "min" : [
                -0.009985662996768951,
                -0.009813427925109863,
                -0.009999970905482769
            ],
            "type" : "VEC3"
        },
        {
            "bufferView" : 13,
            "componentType" : 5126,
            "count" : 229,
            "type" : "VEC3"
        },
        {
            "bufferView" : 14,
            "componentType" : 5126,
            "count" : 229,
            "type" : "VEC2"
        },
        {
            "bufferView" : 15,
            "componentType" : 5123,
            "count" : 948,
            "type" : "SCALAR"
        },
        {
            "bufferView" : 16,
            "componentType" : 5126,
            "count" : 1128,
            "max" : [
                0.32753193378448486,
                0.19381499290466309,
                0.004999999888241291
            ],
            "min" : [
                -0.3264683485031128,
                0.18381500244140625,
                -0.004999999888241291
            ],
            "type" : "VEC3"
        },
        {
            "bufferView" : 17,
            "componentType" : 5126,
            "count" : 1128,
            "type" : "VEC3"
        },
        {
            "bufferView" : 18,
            "componentType" : 5126,
            "count" : 1128,
            "type" : "VEC2"
        },
        {
            "bufferView" : 19,
            "componentType" : 5123,
            "count" : 1692,
            "type" : "SCALAR"
        },
        {
            "bufferView" : 20,
            "componentType" : 5126,
            "count" : 624,
            "max" : [
                -0.31646835803985596,
                0.17959949374198914,
                0.004999999888241291
            ],
            "min" : [
                -0.3264683485031128,
                -0.18040046095848083,
                -0.004999999888241291
            ],
            "type" : "VEC3"
        },
        {
            "bufferView" : 21,
            "componentType" : 5126,
            "count" : 624,
            "type" : "VEC3"
        },
        {
            "bufferView" : 22,
            "componentType" : 5126,
            "count" : 624,
            "type" : "VEC2"
        },
        {
            "bufferView" : 23,
            "componentType" : 5123,
            "count" : 936,
            "type" : "SCALAR"
        },
        {
            "bufferView" : 24,
            "componentType" : 5126,
            "count" : 1128,
            "max" : [
                0.32753193378448486,
                -0.1842890977859497,
                0.004999999888241291
            ],
            "min" : [
                -0.3264683485031128,
                -0.19428908824920654,
                -0.004999999888241291
            ],
            "type" : "VEC3"
        },
        {
            "bufferView" : 25,
            "componentType" : 5126,
            "count" : 1128,
            "type" : "VEC3"
        },
        {
            "bufferView" : 26,
            "componentType" : 5126,
            "count" : 1128,
            "type" : "VEC2"
        },
        {
            "bufferView" : 27,
            "componentType" : 5126,
            "count" : 624,
            "max" : [
                0.32745933532714844,
                0.17959949374198914,
                0.004999999888241291
            ],
            "min" : [
                0.3174593448638916,
                -0.18040046095848083,
                -0.004999999888241291
            ],
            "type" : "VEC3"
        },
        {
            "bufferView" : 28,
            "componentType" : 5126,
            "count" : 624,
            "type" : "VEC3"
        },
        {
            "bufferView" : 29,
            "componentType" : 5126,
            "count" : 624,
            "type" : "VEC2"
        }
    ],
    "bufferViews" : [
        {
            "buffer" : 0,
            "byteLength" : 83664,
            "byteOffset" : 0
        },
        {
            "buffer" : 0,
            "byteLength" : 83664,
            "byteOffset" : 83664
        },
        {
            "buffer" : 0,
            "byteLength" : 55776,
            "byteOffset" : 167328
        },
        {
            "buffer" : 0,
            "byteLength" : 15444,
            "byteOffset" : 223104
        },
        {
            "buffer" : 0,
            "byteLength" : 48,
            "byteOffset" : 238548
        },
        {
            "buffer" : 0,
            "byteLength" : 48,
            "byteOffset" : 238596
        },
        {
            "buffer" : 0,
            "byteLength" : 32,
            "byteOffset" : 238644
        },
        {
            "buffer" : 0,
            "byteLength" : 12,
            "byteOffset" : 238676
        },
        {
            "buffer" : 0,
            "byteLength" : 1560,
            "byteOffset" : 238688
        },
        {
            "buffer" : 0,
            "byteLength" : 1560,
            "byteOffset" : 240248
        },
        {
            "buffer" : 0,
            "byteLength" : 1040,
            "byteOffset" : 241808
        },
        {
            "buffer" : 0,
            "byteLength" : 744,
            "byteOffset" : 242848
        },
        {
            "buffer" : 0,
            "byteLength" : 2748,
            "byteOffset" : 243592
        },
        {
            "buffer" : 0,
            "byteLength" : 2748,
            "byteOffset" : 246340
        },
        {
            "buffer" : 0,
            "byteLength" : 1832,
            "byteOffset" : 249088
        },
        {
            "buffer" : 0,
            "byteLength" : 1896,
            "byteOffset" : 250920
        },
        {
            "buffer" : 0,
            "byteLength" : 13536,
            "byteOffset" : 252816
        },
        {
            "buffer" : 0,
            "byteLength" : 13536,
            "byteOffset" : 266352
        },
        {
            "buffer" : 0,
            "byteLength" : 9024,
            "byteOffset" : 279888
        },
        {
            "buffer" : 0,
            "byteLength" : 3384,
            "byteOffset" : 288912
        },
        {
            "buffer" : 0,
            "byteLength" : 7488,
            "byteOffset" : 292296
        },
        {
            "buffer" : 0,
            "byteLength" : 7488,
            "byteOffset" : 299784
        },
        {
            "buffer" : 0,
            "byteLength" : 4992,
            "byteOffset" : 307272
        },
        {
            "buffer" : 0,
            "byteLength" : 1872,
            "byteOffset" : 312264
        },
        {
            "buffer" : 0,
            "byteLength" : 13536,
            "byteOffset" : 314136
        },
        {
            "buffer" : 0,
            "byteLength" : 13536,
            "byteOffset" : 327672
        },
        {
            "buffer" : 0,
            "byteLength" : 9024,
            "byteOffset" : 341208
        },
        {
            "buffer" : 0,
            "byteLength" : 7488,
            "byteOffset" : 350232
        },
        {
            "buffer" : 0,
            "byteLength" : 7488,
            "byteOffset" : 357720
        },
        {
            "buffer" : 0,
            "byteLength" : 4992,
            "byteOffset" : 365208
        }
    ],
    "samplers" : [
        {
            "magFilter" : 9729,
            "minFilter" : 9987
        }
    ],
    "buffers" : [
        {
            "byteLength" : 370200,
            "uri" : "gurupriyam_ar_logo.bin"
        }
    ]
}
