<svg xmlns="http://www.w3.org/2000/svg" width="198.513" height="87.641" viewBox="0 0 198.513 87.641">
  <g id="Group_16" data-name="Group 16" transform="translate(-73.771 -172.197)">
    <g id="Group_13" data-name="Group 13" transform="translate(73.771 172.197)">
      <g id="Group_12" data-name="Group 12">
        <path id="Path_1" data-name="Path 1" d="M95.824,235.49l-21.92.046-.132-62.627,20.735-.044c11.341-.025,20.57,1.819,27.7,11.62a33.074,33.074,0,0,1,5.8,19.454C128.045,224.5,116.3,235.447,95.824,235.49Zm.912-48.58-6.939.015.073,34.529,6.856-.015c10.918-.023,15.3-7.057,15.282-17.213C111.985,194.24,107.4,186.886,96.736,186.909Z" transform="translate(-73.771 -172.489)" fill="#fff"/>
        <path id="Path_2" data-name="Path 2" d="M207.041,235.228l-3.066-9.05-21.75.046-3.282,9.063-17.18.037,25-62.681,12.611-.026L224.39,235.19Zm-13.8-43.134h-.254L186.6,213.519l13.118-.028Z" transform="translate(-112.204 -172.38)" fill="#fff"/>
        <path id="Path_3" data-name="Path 3" d="M305.22,235.048l-14.515-20.2h-.169l.043,20.228-15.318.033-.132-62.628,19.8-.041c6.6-.015,13.88.139,19.305,4.443a21.7,21.7,0,0,1,7.737,17.08c.021,9.647-5.632,18.123-15.529,19.751L323.5,235.01Zm-8.9-48.561-5.84.014.037,17.434,5.671-.012c6.009-.013,10.489-2.562,10.475-8.992C306.646,188.752,301.816,186.476,296.316,186.487Z" transform="translate(-161.719 -172.304)" fill="#fff"/>
        <path id="Path_4" data-name="Path 4" d="M364.368,234.9l-.133-62.627,34.784-.074.03,14.05-19.466.039.021,9.734,18.873-.039.03,14.048-18.873.04.023,10.749,19.465-.042.03,14.05Z" transform="translate(-200.638 -172.197)" fill="#fff"/>
      </g>
    </g>
    <g id="Group_15" data-name="Group 15" transform="translate(187.53 241.574)">
      <g id="Group_14" data-name="Group 14" transform="translate(0 0)">
        <path id="Path_5" data-name="Path 5" d="M286.679,312.2a11.272,11.272,0,0,1-5.744,1.467l-5.15.011-.037-17.644,5.15-.011a11.208,11.208,0,0,1,5.749,1.442,8.778,8.778,0,0,1,.032,14.736Zm-.791-13.232a9.687,9.687,0,0,0-5.821-1.346l-2.551.006.03,14.448,2.932-.006a8.986,8.986,0,0,0,5.672-1.442,7.245,7.245,0,0,0,2.754-5.823A7.082,7.082,0,0,0,285.888,298.971Z" transform="translate(-275.748 -295.659)" fill="#fff"/>
        <path id="Path_6" data-name="Path 6" d="M307.358,313.619l-.037-17.644,1.765,0,.037,17.644Z" transform="translate(-289.538 -295.635)" fill="#fff"/>
        <path id="Path_7" data-name="Path 7" d="M324.879,313.639a9.138,9.138,0,1,1-.062-18.264,9.572,9.572,0,0,1,7.208,3.227,6.243,6.243,0,0,1,1.148,1.762l-2.051.005a7.379,7.379,0,0,0-6.277-3.4,7.538,7.538,0,1,0,.1,15.07,7.487,7.487,0,0,0,7.118-5.237l-9.847.021,0-1.6,11.969-.025A9.258,9.258,0,0,1,324.879,313.639Z" transform="translate(-293.065 -295.375)" fill="#fff"/>
        <path id="Path_8" data-name="Path 8" d="M353.827,313.521l-.037-17.644,1.765,0,.037,17.644Z" transform="translate(-309.835 -295.592)" fill="#fff"/>
        <path id="Path_9" data-name="Path 9" d="M366.213,297.435l.034,16.046-1.765,0-.034-16.046-4.054.008,0-1.6,9.847-.021,0,1.6Z" transform="translate(-312.718 -295.573)" fill="#fff"/>
        <path id="Path_10" data-name="Path 10" d="M390.478,313.43l-2.564-5.932-8.2.017-2.563,5.943-1.836,0,7.5-17.661,1.979,0,7.619,17.628ZM383.817,297.8l-3.441,8.114,6.844-.015Z" transform="translate(-319.236 -295.56)" fill="#fff"/>
        <path id="Path_11" data-name="Path 11" d="M409.566,313.4l-.037-17.644,1.765,0,.034,16.046,7.3-.015,0,1.6Z" transform="translate(-334.18 -295.541)" fill="#fff"/>
      </g>
    </g>
  </g>
</svg>
