{
    "asset" : {
        "copyright" : "DARE Digital - Syamlal Pullamballi",
        "generator" : "Khronos glTF Blender I/O v3.2.43",
        "version" : "2.0"
    },
    "scene" : 0,
    "scenes" : [
        {
            "name" : "Scene",
            "nodes" : [
                0
            ]
        }
    ],
    "nodes" : [
        {
            "mesh" : 0,
            "name" : "blue_villa_lp",
            "scale" : [
                5.352919578552246,
                0.4460766315460205,
                5.352919578552246
            ],
            "translation" : [
                0,
                0.5,
                0
            ]
        }
    ],
    "materials" : [
        {
            "doubleSided" : true,
            "name" : "blue_villa_mat",
            "normalTexture" : {
                "index" : 0,
                "scale" : 2
            },
            "pbrMetallicRoughness" : {
                "baseColorTexture" : {
                    "index" : 1
                },
                "metallicRoughnessTexture" : {
                    "index" : 2
                }
            }
        }
    ],
    "meshes" : [
        {
            "name" : "Cube.049",
            "primitives" : [
                {
                    "attributes" : {
                        "POSITION" : 0,
                        "NORMAL" : 1,
                        "TEXCOORD_0" : 2
                    },
                    "indices" : 3,
                    "material" : 0
                }
            ]
        }
    ],
    "textures" : [
        {
            "sampler" : 0,
            "source" : 0
        },
        {
            "sampler" : 0,
            "source" : 1
        },
        {
            "sampler" : 0,
            "source" : 2
        }
    ],
    "images" : [
        {
            "mimeType" : "image/png",
            "name" : "blue_villa_normal",
            "uri" : "textures/blue_villa_normal.png"
        },
        {
            "mimeType" : "image/png",
            "name" : "blue_villa_diffuse",
            "uri" : "textures/blue_villa_diffuse.png"
        },
        {
            "mimeType" : "image/png",
            "name" : "blue_villa_orm",
            "uri" : "textures/blue_villa_orm.png"
        }
    ],
    "accessors" : [
        {
            "bufferView" : 0,
            "componentType" : 5126,
            "count" : 217,
            "max" : [
                1.1296968460083008,
                1.0064289569854736,
                1.1296968460083008
            ],
            "min" : [
                -1.1296968460083008,
                -1,
                -1.1296968460083008
            ],
            "type" : "VEC3"
        },
        {
            "bufferView" : 1,
            "componentType" : 5126,
            "count" : 217,
            "type" : "VEC3"
        },
        {
            "bufferView" : 2,
            "componentType" : 5126,
            "count" : 217,
            "type" : "VEC2"
        },
        {
            "bufferView" : 3,
            "componentType" : 5123,
            "count" : 354,
            "type" : "SCALAR"
        }
    ],
    "bufferViews" : [
        {
            "buffer" : 0,
            "byteLength" : 2604,
            "byteOffset" : 0
        },
        {
            "buffer" : 0,
            "byteLength" : 2604,
            "byteOffset" : 2604
        },
        {
            "buffer" : 0,
            "byteLength" : 1736,
            "byteOffset" : 5208
        },
        {
            "buffer" : 0,
            "byteLength" : 708,
            "byteOffset" : 6944
        }
    ],
    "samplers" : [
        {
            "magFilter" : 9729,
            "minFilter" : 9987
        }
    ],
    "buffers" : [
        {
            "byteLength" : 7652,
            "uri" : "blue_villa.bin"
        }
    ]
}
