{
    "asset" : {
        "copyright" : "DARE Digital - Syamlal Pullamballi",
        "generator" : "Khronos glTF Blender I/O v3.2.43",
        "version" : "2.0"
    },
    "scene" : 0,
    "scenes" : [
        {
            "name" : "Scene",
            "nodes" : [
                0
            ]
        }
    ],
    "nodes" : [
        {
            "mesh" : 0,
            "name" : "pawn_lp"
        }
    ],
    "materials" : [
        {
            "doubleSided" : true,
            "name" : "pawn_mat",
            "normalTexture" : {
                "index" : 0
            },
            "pbrMetallicRoughness" : {
                "baseColorTexture" : {
                    "index" : 1
                },
                "metallicRoughnessTexture" : {
                    "index" : 2
                }
            }
        }
    ],
    "meshes" : [
        {
            "name" : "Sphere.016",
            "primitives" : [
                {
                    "attributes" : {
                        "POSITION" : 0,
                        "NORMAL" : 1,
                        "TEXCOORD_0" : 2
                    },
                    "indices" : 3,
                    "material" : 0
                }
            ]
        }
    ],
    "textures" : [
        {
            "sampler" : 0,
            "source" : 0
        },
        {
            "sampler" : 0,
            "source" : 1
        },
        {
            "sampler" : 0,
            "source" : 2
        }
    ],
    "images" : [
        {
            "mimeType" : "image/png",
            "name" : "pawn_red_normal",
            "uri" : "textures/pawn_red_normal.png"
        },
        {
            "mimeType" : "image/png",
            "name" : "pawn_yellow_diffuse",
            "uri" : "textures/pawn_yellow_diffuse.png"
        },
        {
            "mimeType" : "image/png",
            "name" : "pawn_orm",
            "uri" : "textures/pawn_orm.png"
        }
    ],
    "accessors" : [
        {
            "bufferView" : 0,
            "componentType" : 5126,
            "count" : 1320,
            "max" : [
                0.3479950726032257,
                1.681010127067566,
                0.3489235043525696
            ],
            "min" : [
                -0.35574057698249817,
                0.003433170262724161,
                -0.3535032868385315
            ],
            "type" : "VEC3"
        },
        {
            "bufferView" : 1,
            "componentType" : 5126,
            "count" : 1320,
            "type" : "VEC3"
        },
        {
            "bufferView" : 2,
            "componentType" : 5126,
            "count" : 1320,
            "type" : "VEC2"
        },
        {
            "bufferView" : 3,
            "componentType" : 5123,
            "count" : 5280,
            "type" : "SCALAR"
        }
    ],
    "bufferViews" : [
        {
            "buffer" : 0,
            "byteLength" : 15840,
            "byteOffset" : 0
        },
        {
            "buffer" : 0,
            "byteLength" : 15840,
            "byteOffset" : 15840
        },
        {
            "buffer" : 0,
            "byteLength" : 10560,
            "byteOffset" : 31680
        },
        {
            "buffer" : 0,
            "byteLength" : 10560,
            "byteOffset" : 42240
        }
    ],
    "samplers" : [
        {
            "magFilter" : 9729,
            "minFilter" : 9987
        }
    ],
    "buffers" : [
        {
            "byteLength" : 52800,
            "uri" : "yellow_pawn.bin"
        }
    ]
}
